<?xml version="1.0" encoding="UTF-8" standalone="no"?>
<svg
   width="555.88281pt"
   height="453.59802pt"
   viewBox="0 0 555.88281 453.59802"
   version="1.2"
   id="svg290"
   sodipodi:docname="shortest_path.svg"
   inkscape:version="1.3.2 (1:1.3.2+202311252150+091e20ef0f)"
   inkscape:export-filename="shortest_path.png"
   inkscape:export-xdpi="129.83481"
   inkscape:export-ydpi="129.83481"
   xmlns:inkscape="http://www.inkscape.org/namespaces/inkscape"
   xmlns:sodipodi="http://sodipodi.sourceforge.net/DTD/sodipodi-0.dtd"
   xmlns="http://www.w3.org/2000/svg"
   xmlns:svg="http://www.w3.org/2000/svg">
  <sodipodi:namedview
     id="namedview290"
     pagecolor="#ffffff"
     bordercolor="#cccccc"
     borderopacity="1"
     inkscape:showpageshadow="0"
     inkscape:pageopacity="1"
     inkscape:pagecheckerboard="false"
     inkscape:deskcolor="#d1d1d1"
     inkscape:document-units="pt"
     inkscape:zoom="1.6695577"
     inkscape:cx="269.53247"
     inkscape:cy="295.58727"
     inkscape:window-width="1920"
     inkscape:window-height="1142"
     inkscape:window-x="0"
     inkscape:window-y="0"
     inkscape:window-maximized="1"
     inkscape:current-layer="surface12528"
     inkscape:export-bgcolor="#ffffffff" />
  <defs
     id="defs24">
    <clipPath
       id="clip1">
      <path
         d="M 0,0 H 648 V 475.92187 H 0 Z m 0,0"
         id="path1" />
    </clipPath>
    <clipPath
       id="clip2">
      <path
         d="M 394,322 H 647.85547 V 475.92187 H 394 Z m 0,0"
         id="path2" />
    </clipPath>
    <clipPath
       id="clip3">
      <path
         d="m 231,0 h 85 v 475.92187 h -85 z m 0,0"
         id="path3" />
    </clipPath>
    <clipPath
       id="clip4">
      <path
         d="m 625,0 h 22.85547 V 5 H 625 Z m 0,0"
         id="path4" />
    </clipPath>
    <clipPath
       id="clip5">
      <path
         d="M 280,94 H 647.85547 V 331 H 280 Z m 0,0"
         id="path5" />
    </clipPath>
    <clipPath
       id="clip6">
      <path
         d="M 280,94 H 647.85547 V 331 H 280 Z m 0,0"
         id="path6" />
    </clipPath>
    <clipPath
       id="clip7">
      <path
         d="m 250,94 h 66 v 381.92187 h -66 z m 0,0"
         id="path7" />
    </clipPath>
    <clipPath
       id="clip8">
      <path
         d="M 280,94 H 513 V 475.92187 H 280 Z m 0,0"
         id="path8" />
    </clipPath>
    <clipPath
       id="clip9">
      <path
         d="M 280,94 H 647.85547 V 331 H 280 Z m 0,0"
         id="path9" />
    </clipPath>
    <clipPath
       id="clip10">
      <path
         d="m 250,94 h 66 v 381.92187 h -66 z m 0,0"
         id="path10" />
    </clipPath>
    <clipPath
       id="clip11">
      <path
         d="M 231,0 H 647.85547 V 98 H 231 Z m 0,0"
         id="path11" />
    </clipPath>
    <clipPath
       id="clip12">
      <path
         d="M 280,94 H 647.85547 V 331 H 280 Z m 0,0"
         id="path12" />
    </clipPath>
    <clipPath
       id="clip13">
      <path
         d="m 250,94 h 66 v 381.92187 h -66 z m 0,0"
         id="path13" />
    </clipPath>
    <clipPath
       id="clip14">
      <path
         d="m 250,94 h 66 v 381.92187 h -66 z m 0,0"
         id="path14" />
    </clipPath>
    <clipPath
       id="clip15">
      <path
         d="M 280,94 H 647.85547 V 331 H 280 Z m 0,0"
         id="path15" />
    </clipPath>
    <clipPath
       id="clip16">
      <path
         d="m 250,94 h 66 v 381.92187 h -66 z m 0,0"
         id="path16" />
    </clipPath>
    <clipPath
       id="clip17">
      <path
         d="M 280,94 H 647.85547 V 331 H 280 Z m 0,0"
         id="path17" />
    </clipPath>
    <clipPath
       id="clip18">
      <path
         d="m 250,94 h 66 v 381.92187 h -66 z m 0,0"
         id="path18" />
    </clipPath>
    <clipPath
       id="clip19">
      <path
         d="M 280,94 H 647.85547 V 331 H 280 Z m 0,0"
         id="path19" />
    </clipPath>
    <clipPath
       id="clip20">
      <path
         d="m 250,94 h 66 v 381.92187 h -66 z m 0,0"
         id="path20" />
    </clipPath>
    <clipPath
       id="clip21">
      <path
         d="M 280,94 H 647.85547 V 331 H 280 Z m 0,0"
         id="path21" />
    </clipPath>
    <clipPath
       id="clip22">
      <path
         d="M 280,94 H 647.85547 V 331 H 280 Z m 0,0"
         id="path22" />
    </clipPath>
    <clipPath
       id="clip23">
      <path
         d="m 250,94 h 66 v 381.92187 h -66 z m 0,0"
         id="path23" />
    </clipPath>
    <clipPath
       id="clip24">
      <path
         d="M 280,94 H 647.85547 V 331 H 280 Z m 0,0"
         id="path24" />
    </clipPath>
  </defs>
  <g
     id="surface12528"
     transform="translate(-87.1172, -13.152)">
    <g
       clip-path="url(#clip2)"
       clip-rule="nonzero"
       id="g26"
       style="display:inline">
      <path
         style="fill:none;stroke:#00ac00;stroke-width:12.4995;stroke-linecap:square;stroke-linejoin:bevel;stroke-miterlimit:10;stroke-dasharray:none;stroke-opacity:1"
         d="m 2330.6001,1459.5424 245.4,-87.6917 83.5079,75.8266"
         transform="scale(0.24001)"
         id="path298" />
      <path
         style="fill:none;stroke:#000000;stroke-width:12.4995;stroke-linecap:square;stroke-linejoin:bevel;stroke-miterlimit:10;stroke-dasharray:none;stroke-opacity:1"
         d="m 2129.4528,1601.9356 201.1473,-142.3932"
         transform="scale(0.24001)"
         id="path297" />
      <path
         style="fill:none;stroke:#00ac00;stroke-width:12.4995;stroke-linecap:square;stroke-linejoin:bevel;stroke-miterlimit:10;stroke-dasharray:none;stroke-opacity:1"
         d="m 1841.1021,1909.1169 288.3507,-307.1813"
         transform="scale(0.24001)"
         id="path26" />
    </g>
    <g
       clip-path="url(#clip3)"
       clip-rule="nonzero"
       id="g27"
       style="display:inline">
      <path
         style="fill:none;stroke:#00ac00;stroke-width:12.4995;stroke-linecap:square;stroke-linejoin:bevel;stroke-miterlimit:10;stroke-dasharray:none;stroke-opacity:1"
         d="m 1068.0707,71.872005 109.5823,329.625035 130.1379,600.80516 -107.3523,589.6403 -83.6995,329.0387"
         transform="scale(0.24001)"
         id="path27"
         sodipodi:nodetypes="ccccc" />
    </g>
    <path
       style="fill:none;stroke:#00ac00;stroke-width:12.4995;stroke-linecap:square;stroke-linejoin:bevel;stroke-miterlimit:10;stroke-dasharray:none;stroke-opacity:1"
       d="M 591.01925,71.872005 1177.653,401.49704 1787.2144,916.38457 2576.0001,1371.8507"
       transform="scale(0.24001)"
       id="path29"
       sodipodi:nodetypes="cccc" />
    <path
       style="fill:none;stroke:#00ac00;stroke-width:12.4995;stroke-linecap:square;stroke-linejoin:bevel;stroke-miterlimit:10;stroke-dasharray:none;stroke-opacity:1"
       d="m 2129.4528,1601.9356 -929.0142,-9.9931 -825.60061,41.7789"
       transform="scale(0.24001)"
       id="path30"
       sodipodi:nodetypes="ccc" />
    <path
       style="fill:#d91c28;fill-opacity:1;fill-rule:evenodd;stroke:none;stroke-width:4.72441;stroke-linecap:square;stroke-linejoin:bevel;stroke-miterlimit:10;stroke-opacity:1"
       d="m 2142.7661,1716.4003 c 0,9.7815 -7.9261,17.7076 -17.7076,17.7076 -9.7978,0 -17.7239,-7.9261 -17.7239,-17.7076 0,-9.7978 7.9261,-17.7239 17.7239,-17.7239 9.7815,0 17.7076,7.9261 17.7076,17.7239 z m 0,0"
       transform="scale(0.24001)"
       id="path32" />
    <path
       style="fill:#000000;fill-opacity:1;fill-rule:evenodd;stroke:none;stroke-width:1.23501"
       d="m 446.05078,458.8735 c 0,1.93454 -1.56788,3.50242 -3.50241,3.50242 -1.92971,0 -3.49759,-1.56788 -3.49759,-3.50242 0,-1.93453 1.56788,-3.50241 3.49759,-3.50241 1.93453,0 3.50241,1.56788 3.50241,3.50241 z m 0,0"
       id="path262" />
    <path
       style="fill:#000000;fill-opacity:1;fill-rule:evenodd;stroke:none"
       d="m 513.92578,384.48047 c 0,1.5664 -1.26953,2.83594 -2.83594,2.83594 -1.5664,0 -2.83203,-1.26954 -2.83203,-2.83594 0,-1.5625 1.26563,-2.83203 2.83203,-2.83203 1.56641,0 2.83594,1.26953 2.83594,2.83203 z m 0,0"
       id="path264" />
    <path
       style="fill:#212121;fill-opacity:1;fill-rule:nonzero;stroke:none"
       d="m 513.9375,384.48047 c 0,1.57031 -1.27734,2.84765 -2.84766,2.84765 -1.57031,0 -2.84375,-1.27734 -2.84375,-2.84765 0,-1.57031 1.27344,-2.84375 2.84375,-2.84375 1.57032,0 2.84766,1.27344 2.84766,2.84375 z m -0.0234,0 c 0,-1.5586 -1.26172,-2.82031 -2.82422,-2.82031 -1.55859,0 -2.82031,1.26171 -2.82031,2.82031 0,1.5625 1.26172,2.82422 2.82031,2.82422 1.5625,0 2.82422,-1.26172 2.82422,-2.82422 z m 0,0"
       id="path265" />
    <path
       style="fill:#000000;fill-opacity:1;fill-rule:evenodd;stroke:none;stroke-width:1.23416"
       d="m 563.53125,350.96876 c 0,1.92837 -1.5668,3.49518 -3.49999,3.49518 -1.93321,0 -3.50001,-1.56681 -3.50001,-3.49518 0,-1.93321 1.5668,-3.50001 3.50001,-3.50001 1.93319,0 3.49999,1.5668 3.49999,3.50001 z m 0,0"
       id="path266" />
    <path
       style="fill:#000000;fill-opacity:1;fill-rule:evenodd;stroke:none"
       d="m 621.10156,329.25781 c 0,1.56641 -1.26953,2.83594 -2.83594,2.83594 -1.5664,0 -2.83593,-1.26953 -2.83593,-2.83594 0,-1.5664 1.26953,-2.83203 2.83593,-2.83203 1.56641,0 2.83594,1.26563 2.83594,2.83203 z m 0,0"
       id="path268" />
    <path
       style="fill:#212121;fill-opacity:1;fill-rule:nonzero;stroke:none"
       d="m 621.11328,329.25781 c 0,1.57031 -1.27734,2.84766 -2.84766,2.84766 -1.57031,0 -2.84765,-1.27735 -2.84765,-2.84766 0,-1.57031 1.27734,-2.84375 2.84765,-2.84375 1.57032,0 2.84766,1.27344 2.84766,2.84375 z m -0.0234,0 c 0,-1.55859 -1.26172,-2.82031 -2.82422,-2.82031 -1.55859,0 -2.82031,1.26172 -2.82031,2.82031 0,1.5625 1.26172,2.82422 2.82031,2.82422 1.5625,0 2.82422,-1.26172 2.82422,-2.82422 z m 0,0"
       id="path269" />
    <path
       style="fill:#000000;fill-opacity:1;fill-rule:evenodd;stroke:none"
       d="m 285.48047,96.363281 c 0,1.5625 -1.26953,2.832031 -2.83203,2.832031 -1.56641,0 -2.83594,-1.269531 -2.83594,-2.832031 0,-1.566406 1.26953,-2.835937 2.83594,-2.835937 1.5625,0 2.83203,1.269531 2.83203,2.835937 z m 0,0"
       id="path270" />
    <path
       style="fill:#212121;fill-opacity:1;fill-rule:nonzero;stroke:none"
       d="m 285.49219,96.363281 c 0,1.570313 -1.27344,2.84375 -2.84375,2.84375 -1.57032,0 -2.84766,-1.273437 -2.84766,-2.84375 0,-1.570312 1.27734,-2.847656 2.84766,-2.847656 1.57031,0 2.84375,1.277344 2.84375,2.847656 z m -0.0234,0 c 0,-1.5625 -1.26172,-2.824219 -2.82031,-2.824219 -1.5625,0 -2.82422,1.261719 -2.82422,2.824219 0,1.558594 1.26172,2.820313 2.82422,2.820313 1.55859,0 2.82031,-1.261719 2.82031,-2.820313 z m 0,0"
       id="path271" />
    <path
       style="fill:#000000;fill-opacity:1;fill-rule:evenodd;stroke:none;stroke-width:1.23501"
       d="m 316.55078,241.22897 c 0,1.93454 -1.56788,3.50242 -3.50241,3.50242 -1.92971,0 -3.49759,-1.56788 -3.49759,-3.50242 0,-1.93453 1.56788,-3.50241 3.49759,-3.50241 1.93453,0 3.50241,1.56788 3.50241,3.50241 z m 0,0"
       id="path272" />
    <path
       style="fill:#000000;fill-opacity:1;fill-rule:evenodd;stroke:none"
       d="m 290.94922,382.08203 c 0,1.5625 -1.26563,2.83203 -2.83203,2.83203 -1.56641,0 -2.83594,-1.26953 -2.83594,-2.83203 0,-1.56641 1.26953,-2.83594 2.83594,-2.83594 1.5664,0 2.83203,1.26953 2.83203,2.83594 z m 0,0"
       id="path274" />
    <path
       style="fill:#212121;fill-opacity:1;fill-rule:nonzero;stroke:none"
       d="m 290.96094,382.08203 c 0,1.57031 -1.27344,2.84375 -2.84375,2.84375 -1.57032,0 -2.84766,-1.27344 -2.84766,-2.84375 0,-1.57031 1.27734,-2.84766 2.84766,-2.84766 1.57031,0 2.84375,1.27735 2.84375,2.84766 z m -0.0234,0 c 0,-1.5625 -1.26172,-2.82422 -2.82031,-2.82422 -1.5625,0 -2.82422,1.26172 -2.82422,2.82422 0,1.55859 1.26172,2.82031 2.82422,2.82031 1.55859,0 2.82031,-1.26172 2.82031,-2.82031 z m 0,0"
       id="path275" />
    <path
       style="fill:#ff0000;fill-opacity:1;fill-rule:evenodd;stroke:none;stroke-width:1.23501"
       d="m 286.8125,97.029755 c 0,1.929703 -1.56788,3.497585 -3.49759,3.497585 -1.93453,0 -3.50241,-1.567882 -3.50241,-3.497585 0,-1.934527 1.56788,-3.502411 3.50241,-3.502411 1.92971,0 3.49759,1.567884 3.49759,3.502411 z m 0,0"
       id="path276" />
    <path
       style="fill:#000000;fill-opacity:1;fill-rule:evenodd;stroke:none;stroke-width:1.23501"
       d="m 433.11328,220.60697 c 0,1.93452 -1.56788,3.5024 -3.49759,3.5024 -1.93453,0 -3.50241,-1.56788 -3.50241,-3.5024 0,-1.92971 1.56788,-3.4976 3.50241,-3.4976 1.92971,0 3.49759,1.56789 3.49759,3.4976 z m 0,0"
       id="path278" />
    <path
       style="fill:#000000;fill-opacity:1;fill-rule:evenodd;stroke:none;stroke-width:1.23501"
       d="m 144.74079,16.649582 c 0,1.93452 -1.56788,3.502402 -3.49759,3.502402 -1.93453,0 -3.50241,-1.567882 -3.50241,-3.502402 0,-1.929703 1.56788,-3.497598 3.50241,-3.497598 1.92971,0 3.49759,1.567895 3.49759,3.497598 z m 0,0"
       id="path278-5" />
    <path
       style="fill:#000000;fill-opacity:1;fill-rule:evenodd;stroke:none;stroke-width:1.23416"
       d="m 622.42969,329.92096 c 0,1.9332 -1.5668,3.50001 -3.50001,3.50001 -1.93319,0 -3.49999,-1.56681 -3.49999,-3.50001 0,-1.93319 1.5668,-3.49518 3.49999,-3.49518 1.93321,0 3.50001,1.56199 3.50001,3.49518 z m 0,0"
       id="path280" />
    <path
       style="fill:#000000;fill-opacity:1;fill-rule:evenodd;stroke:none;stroke-width:1.23501"
       d="m 515.25781,385.14603 c 0,1.93452 -1.56788,3.50241 -3.50241,3.50241 -1.93452,0 -3.49759,-1.56789 -3.49759,-3.50241 0,-1.92971 1.56307,-3.49759 3.49759,-3.49759 1.93453,0 3.50241,1.56788 3.50241,3.49759 z m 0,0"
       id="path282" />
    <path
       style="fill:#000000;fill-opacity:1;fill-rule:evenodd;stroke:none;stroke-width:1.23501"
       d="m 290.78125,382.7485 c 0,1.92971 -1.56307,3.49759 -3.49759,3.49759 -1.93453,0 -3.50241,-1.56788 -3.50241,-3.49759 0,-1.93453 1.56788,-3.50241 3.50241,-3.50241 1.93452,0 3.49759,1.56788 3.49759,3.50241 z m 0,0"
       id="path284" />
    <path
       style="fill:#000000;fill-opacity:1;fill-rule:evenodd;stroke:none;stroke-width:1.22992"
       d="m 94.102776,392.76411 c 0,1.92657 -1.561429,3.4832 -3.483185,3.4832 -1.926562,0 -3.487991,-1.55663 -3.487991,-3.4832 0,-1.92655 1.561429,-3.48798 3.487991,-3.48798 1.921756,0 3.483185,1.56143 3.483185,3.48798 z m 0,0"
       id="path286" />
    <path
       style="fill:#212121;fill-opacity:1;fill-rule:nonzero;stroke:none;stroke-width:1.22992"
       d="m 94.117188,392.76411 c 0,1.93138 -1.566232,3.50241 -3.497597,3.50241 -1.936172,0 -3.502403,-1.57103 -3.502403,-3.50241 0,-1.93136 1.566231,-3.50239 3.502403,-3.50239 1.931365,0 3.497597,1.57103 3.497597,3.50239 z m -0.02883,0 c 0,-1.92175 -1.551818,-3.47356 -3.468772,-3.47356 -1.921758,0 -3.473577,1.55181 -3.473577,3.47356 0,1.91698 1.551819,3.46878 3.473577,3.46878 1.916954,0 3.468772,-1.5518 3.468772,-3.46878 z m 0,0"
       id="path287" />
    <path
       style="fill:#454aff;fill-opacity:1;fill-rule:evenodd;stroke:none"
       d="m 300.36719,178.16016 -5.89844,-3.80079 2.42187,-0.52343 -3.14843,-14.54688 4.84765,-1.04687 3.14844,14.54297 2.42578,-0.52344 z m 0,0"
       id="path288" />
    <path
       style="fill:#454aff;fill-opacity:1;fill-rule:evenodd;stroke:none"
       d="m 299.22266,321.08203 -3.99219,-5.76953 2.4414,0.44531 2.66407,-14.64062 4.88281,0.88672 -2.66797,14.64453 2.44141,0.4414 z m 0,0"
       id="path289" />
    <path
       style="fill:#454aff;fill-opacity:1;fill-rule:evenodd;stroke:none"
       d="m 409.52344,383.38672 -5.01172,4.91015 0.0273,-2.48046 -14.88281,-0.16016 0.0547,-4.96094 14.8789,0.16016 0.0274,-2.48047 z m 0,0"
       id="path290" />
    <path
       style="fill:#000000;fill-opacity:1;fill-rule:evenodd;stroke:none;stroke-width:1.23501"
       d="m 259.81798,16.649582 c 0,1.93452 -1.56788,3.502402 -3.49759,3.502402 -1.93453,0 -3.50241,-1.567882 -3.50241,-3.502402 0,-1.929703 1.56788,-3.497598 3.50241,-3.497598 1.92971,0 3.49759,1.567895 3.49759,3.497598 z m 0,0"
       id="path278-5-5" />
    <path
       style="fill:#000000;fill-opacity:1;fill-rule:evenodd;stroke:none;stroke-width:1.23501"
       d="M 643,348.4976 C 643,350.43212 641.43212,352 639.50241,352 637.56788,352 636,350.43212 636,348.4976 636,346.56789 637.56788,345 639.50241,345 641.43212,345 643,346.56789 643,348.4976 Z m 0,0"
       id="path278-5-6" />
    <path
       style="fill:#000000;fill-opacity:1;fill-rule:evenodd;stroke:none;stroke-width:1.23501"
       d="m 268.75,463.2476 c 0,1.93452 -1.56788,3.5024 -3.49759,3.5024 -1.93453,0 -3.50241,-1.56788 -3.50241,-3.5024 0,-1.92971 1.56788,-3.4976 3.50241,-3.4976 1.92971,0 3.49759,1.56789 3.49759,3.4976 z m 0,0"
       id="path278-5-2" />
    <g
       inkscape:label=""
       transform="translate(285.70325,79.924652)"
       id="g325">
      <g
         id="g324"
         transform="translate(-2.5555,-1.77962)">
        <g
           style="fill:#000000;fill-opacity:1"
           id="g321">
          <g
             id="g320"
             transform="translate(1.993,10.889)">
            <path
               style="stroke:none"
               d="m 9.4375,-7.71875 c 0,-1.3125 -0.65625,-1.390625 -0.828125,-1.390625 -0.484375,0 -0.953125,0.5 -0.953125,0.90625 0,0.25 0.15625,0.390625 0.234375,0.484375 0.203125,0.171875 0.75,0.734375 0.75,1.8125 0,0.859375 -1.25,5.703125 -3.71875,5.703125 -1.265625,0 -1.515625,-1.0625 -1.515625,-1.828125 0,-1.03125 0.484375,-2.46875 1.03125,-3.953125 0.328125,-0.859375 0.421875,-1.0625 0.421875,-1.46875 0,-0.875 -0.625,-1.65625 -1.640625,-1.65625 -1.890625,0 -2.65625,3 -2.65625,3.15625 0,0.09375 0.078125,0.1875 0.21875,0.1875 0.1875,0 0.203125,-0.078125 0.296875,-0.375 0.484375,-1.765625 1.296875,-2.5625 2.078125,-2.5625 0.1875,0 0.546875,0 0.546875,0.6875 0,0.53125 -0.234375,1.140625 -0.546875,1.921875 -0.984375,2.640625 -0.984375,3.28125 -0.984375,3.78125 0,0.453125 0.0625,1.296875 0.703125,1.875 0.734375,0.640625 1.765625,0.640625 1.953125,0.640625 3.4375,0 4.609375,-6.75 4.609375,-7.921875 z m 0,0"
               id="path320" />
          </g>
        </g>
        <g
           style="fill:#000000;fill-opacity:1"
           id="g323">
          <g
             id="g322"
             transform="translate(11.774,13.988)">
            <path
               style="stroke:none"
               d="M 0.609375,1.828125 C 0.515625,2.25 0.453125,2.359375 -0.125,2.359375 c -0.171875,0 -0.3125,0 -0.3125,0.28125 0,0.03125 0,0.140625 0.171875,0.140625 0.171875,0 0.375,-0.03125 0.5625,-0.03125 h 0.625 c 0.296875,0 1.03125,0.03125 1.328125,0.03125 0.09375,0 0.265625,0 0.265625,-0.25 0,-0.171875 -0.109375,-0.171875 -0.34375,-0.171875 C 1.5,2.359375 1.46875,2.265625 1.46875,2.15625 c 0,-0.171875 0.640625,-2.640625 0.71875,-2.96875 0.171875,0.390625 0.546875,0.953125 1.296875,0.953125 1.625,0 3.375,-2.109375 3.375,-4.21875 0,-1.3125 -0.75,-2.25 -1.828125,-2.25 -0.921875,0 -1.6875,0.890625 -1.84375,1.09375 -0.125,-0.71875 -0.671875,-1.09375 -1.25,-1.09375 -0.421875,0 -0.75,0.203125 -1.015625,0.75 C 0.65625,-5.0625 0.453125,-4.1875 0.453125,-4.125 c 0,0.046875 0.0625,0.125 0.15625,0.125 0.125,0 0.140625,-0.015625 0.21875,-0.34375 0.21875,-0.84375 0.484375,-1.6875 1.0625,-1.6875 0.328125,0 0.453125,0.21875 0.453125,0.65625 0,0.34375 -0.046875,0.484375 -0.109375,0.734375 z M 3.09375,-4.46875 C 3.203125,-4.875 3.59375,-5.296875 3.828125,-5.5 3.984375,-5.640625 4.453125,-6.03125 5,-6.03125 c 0.640625,0 0.921875,0.625 0.921875,1.375 0,0.6875 -0.40625,2.296875 -0.765625,3.046875 -0.34375,0.78125 -1.015625,1.46875 -1.671875,1.46875 -0.96875,0 -1.125,-1.234375 -1.125,-1.296875 0,-0.046875 0.015625,-0.15625 0.03125,-0.21875 z m 0,0"
               id="path321" />
          </g>
        </g>
      </g>
    </g>
    <g
       inkscape:label=""
       transform="translate(498.90375,363.38537)"
       id="g331">
      <g
         id="g330"
         transform="translate(-2.5555,-1.77962)">
        <g
           style="fill:#000000;fill-opacity:1"
           id="g327">
          <g
             id="g326"
             transform="translate(1.993,10.889)">
            <path
               style="stroke:none"
               d="m 9.4375,-7.71875 c 0,-1.3125 -0.65625,-1.390625 -0.828125,-1.390625 -0.484375,0 -0.953125,0.5 -0.953125,0.90625 0,0.25 0.15625,0.390625 0.234375,0.484375 0.203125,0.171875 0.75,0.734375 0.75,1.8125 0,0.859375 -1.25,5.703125 -3.71875,5.703125 -1.265625,0 -1.515625,-1.0625 -1.515625,-1.828125 0,-1.03125 0.484375,-2.46875 1.03125,-3.953125 0.328125,-0.859375 0.421875,-1.0625 0.421875,-1.46875 0,-0.875 -0.625,-1.65625 -1.640625,-1.65625 -1.890625,0 -2.65625,3 -2.65625,3.15625 0,0.09375 0.078125,0.1875 0.21875,0.1875 0.1875,0 0.203125,-0.078125 0.296875,-0.375 0.484375,-1.765625 1.296875,-2.5625 2.078125,-2.5625 0.1875,0 0.546875,0 0.546875,0.6875 0,0.53125 -0.234375,1.140625 -0.546875,1.921875 -0.984375,2.640625 -0.984375,3.28125 -0.984375,3.78125 0,0.453125 0.0625,1.296875 0.703125,1.875 0.734375,0.640625 1.765625,0.640625 1.953125,0.640625 3.4375,0 4.609375,-6.75 4.609375,-7.921875 z m 0,0"
               id="path325" />
          </g>
        </g>
        <g
           style="fill:#000000;fill-opacity:1"
           id="g329">
          <g
             id="g328"
             transform="translate(11.774,13.988)">
            <path
               style="stroke:none"
               d="m 6.328125,-6.1875 c 0,-0.0625 -0.0625,-0.125 -0.125,-0.125 -0.125,0 -0.6875,0.515625 -0.953125,1.015625 -0.265625,-0.640625 -0.703125,-1.03125 -1.3125,-1.03125 -1.625,0 -3.375,2.09375 -3.375,4.21875 0,1.421875 0.828125,2.25 1.796875,2.25 0.765625,0 1.40625,-0.578125 1.703125,-0.90625 L 4.078125,-0.75 3.53125,1.40625 3.40625,1.921875 c -0.140625,0.4375 -0.34375,0.4375 -1.03125,0.4375 -0.15625,0 -0.296875,0 -0.296875,0.28125 0,0.09375 0.09375,0.140625 0.1875,0.140625 C 2.46875,2.78125 2.71875,2.75 2.921875,2.75 h 1.46875 c 0.21875,0 0.453125,0.03125 0.671875,0.03125 0.09375,0 0.265625,0 0.265625,-0.265625 0,-0.15625 -0.125,-0.15625 -0.34375,-0.15625 -0.671875,0 -0.703125,-0.09375 -0.703125,-0.203125 0,-0.078125 0,-0.09375 0.046875,-0.28125 z m -2.03125,4.484375 c -0.0625,0.234375 -0.0625,0.265625 -0.265625,0.546875 -0.3125,0.390625 -0.953125,1.015625 -1.625,1.015625 -0.578125,0 -0.921875,-0.53125 -0.921875,-1.375 0,-0.796875 0.453125,-2.40625 0.71875,-3 0.5,-1 1.171875,-1.515625 1.734375,-1.515625 0.9375,0 1.125,1.171875 1.125,1.28125 0,0.015625 -0.046875,0.203125 -0.0625,0.234375 z m 0,0"
               id="path327" />
          </g>
        </g>
      </g>
    </g>
    <g
       inkscape:label=""
       transform="translate(456.06477,409.27536)"
       id="g332">
      <g
         id="surface1"
         transform="translate(-2.91487,-1.77962)">
        <g
           style="fill:#000000;fill-opacity:1"
           id="g5">
          <g
             id="use4"
             transform="translate(1.993,10.889)">
            <path
               style="stroke:none"
               d="m 3.703125,-4.796875 c 0.546875,0 1.953125,-0.03125 2.953125,-0.40625 C 8.21875,-5.796875 8.359375,-7 8.359375,-7.375 c 0,-0.90625 -0.78125,-1.734375 -2.140625,-1.734375 -2.171875,0 -5.296875,1.96875 -5.296875,5.640625 0,2.171875 1.25,3.671875 3.125,3.671875 2.8125,0 4.59375,-2.1875 4.59375,-2.453125 0,-0.125 -0.125,-0.234375 -0.21875,-0.234375 -0.0625,0 -0.078125,0.03125 -0.265625,0.21875 -1.3125,1.75 -3.28125,2.0625 -4.0625,2.0625 -1.1875,0 -1.796875,-0.9375 -1.796875,-2.46875 0,-0.28125 0,-0.796875 0.3125,-2.125 z m -1,-0.40625 c 0.890625,-3.1875 2.859375,-3.5 3.515625,-3.5 0.90625,0 1.53125,0.546875 1.53125,1.328125 0,2.171875 -3.3125,2.171875 -4.171875,2.171875 z m 0,0"
               id="path331" />
          </g>
        </g>
        <g
           style="fill:#000000;fill-opacity:1"
           id="g6">
          <g
             id="use5"
             transform="translate(11.369,13.988)">
            <path
               style="stroke:none"
               d="m 6.328125,-6.1875 c 0,-0.0625 -0.0625,-0.125 -0.125,-0.125 -0.125,0 -0.6875,0.515625 -0.953125,1.015625 -0.265625,-0.640625 -0.703125,-1.03125 -1.3125,-1.03125 -1.625,0 -3.375,2.09375 -3.375,4.21875 0,1.421875 0.828125,2.25 1.796875,2.25 0.765625,0 1.40625,-0.578125 1.703125,-0.90625 L 4.078125,-0.75 3.53125,1.40625 3.40625,1.921875 c -0.140625,0.4375 -0.34375,0.4375 -1.03125,0.4375 -0.15625,0 -0.296875,0 -0.296875,0.28125 0,0.09375 0.09375,0.140625 0.1875,0.140625 C 2.46875,2.78125 2.71875,2.75 2.921875,2.75 h 1.46875 c 0.21875,0 0.453125,0.03125 0.671875,0.03125 0.09375,0 0.265625,0 0.265625,-0.265625 0,-0.15625 -0.125,-0.15625 -0.34375,-0.15625 -0.671875,0 -0.703125,-0.09375 -0.703125,-0.203125 0,-0.078125 0,-0.09375 0.046875,-0.28125 z m -2.03125,4.484375 c -0.0625,0.234375 -0.0625,0.265625 -0.265625,0.546875 -0.3125,0.390625 -0.953125,1.015625 -1.625,1.015625 -0.578125,0 -0.921875,-0.53125 -0.921875,-1.375 0,-0.796875 0.453125,-2.40625 0.71875,-3 0.5,-1 1.171875,-1.515625 1.734375,-1.515625 0.9375,0 1.125,1.171875 1.125,1.28125 0,0.015625 -0.046875,0.203125 -0.0625,0.234375 z m 0,0"
               id="path332" />
          </g>
        </g>
      </g>
    </g>
    <g
       inkscape:label=""
       transform="translate(522.1436,405.39658)"
       id="g336">
      <g
         id="g335"
         transform="translate(-2.8055,-1.77962)">
        <g
           style="fill:#000000;fill-opacity:1"
           id="g334">
          <g
             id="g333"
             transform="translate(1.993,10.889)">
            <path
               style="stroke:none"
               d="m 9.109375,-8.90625 c 0,-0.09375 -0.078125,-0.1875 -0.1875,-0.1875 -0.15625,0 -0.96875,0.75 -1.359375,1.46875 -0.375,-0.921875 -1.015625,-1.484375 -1.90625,-1.484375 -2.328125,0 -4.84375,3.015625 -4.84375,6.078125 0,2.046875 1.1875,3.234375 2.59375,3.234375 1.09375,0 2,-0.828125 2.4375,-1.296875 l 0.015625,0.015625 -0.78125,3.109375 -0.1875,0.734375 c -0.1875,0.625 -0.484375,0.625 -1.46875,0.640625 C 3.203125,3.40625 3,3.40625 3,3.796875 3,3.953125 3.125,4 3.265625,4 3.546875,4 3.921875,3.96875 4.21875,3.96875 H 6.328125 C 6.625,3.96875 6.984375,4 7.296875,4 7.421875,4 7.65625,4 7.65625,3.609375 7.65625,3.40625 7.5,3.40625 7.1875,3.40625 6.21875,3.40625 6.15625,3.265625 6.15625,3.09375 6.15625,3 6.171875,2.96875 6.234375,2.703125 Z m -2.90625,6.453125 C 6.09375,-2.109375 6.09375,-2.0625 5.796875,-1.671875 5.34375,-1.09375 4.4375,-0.203125 3.46875,-0.203125 c -0.84375,0 -1.328125,-0.765625 -1.328125,-1.984375 0,-1.140625 0.640625,-3.453125 1.046875,-4.3125 0.703125,-1.453125 1.671875,-2.203125 2.46875,-2.203125 1.359375,0 1.640625,1.703125 1.640625,1.859375 0,0.03125 -0.0625,0.296875 -0.09375,0.34375 z m 0,0"
               id="path333" />
          </g>
        </g>
      </g>
    </g>
    <g
       inkscape:label=""
       transform="translate(289.266, 234.842)"
       id="g338">
      <g
         id="g337"
         transform="translate(-2.82112, -1.77862)">
        <g
           style="fill:#000000;fill-opacity:1"
           id="g3">
          <g
             id="use2"
             transform="translate(1.993,10.888)">
            <path
               style="stroke:none"
               d="m 6.21875,-2.453125 c -0.109375,0.34375 -0.109375,0.390625 -0.390625,0.78125 -0.453125,0.578125 -1.359375,1.46875 -2.34375,1.46875 -0.84375,0 -1.3125,-0.765625 -1.3125,-1.984375 0,-1.140625 0.640625,-3.453125 1.03125,-4.3125 C 3.90625,-7.953125 4.875,-8.703125 5.6875,-8.703125 c 1.359375,0 1.625,1.703125 1.625,1.859375 0,0.03125 -0.0625,0.296875 -0.078125,0.34375 z M 7.546875,-7.75 C 7.3125,-8.28125 6.75,-9.109375 5.6875,-9.109375 c -2.34375,0 -4.859375,3.015625 -4.859375,6.078125 0,2.046875 1.203125,3.234375 2.59375,3.234375 1.140625,0 2.109375,-0.890625 2.6875,-1.5625 0.21875,1.21875 1.1875,1.5625 1.796875,1.5625 0.625,0 1.125,-0.375 1.5,-1.109375 0.328125,-0.703125 0.609375,-1.96875 0.609375,-2.046875 0,-0.109375 -0.078125,-0.1875 -0.203125,-0.1875 -0.1875,0 -0.203125,0.109375 -0.296875,0.40625 -0.296875,1.21875 -0.703125,2.53125 -1.546875,2.53125 -0.59375,0 -0.640625,-0.546875 -0.640625,-0.953125 0,-0.46875 0.0625,-0.703125 0.25,-1.515625 0.140625,-0.515625 0.25,-0.96875 0.421875,-1.5625 0.765625,-3.09375 0.9375,-3.84375 0.9375,-3.96875 0,-0.28125 -0.21875,-0.515625 -0.53125,-0.515625 C 7.75,-8.71875 7.578125,-8 7.546875,-7.75 Z m 0,0"
               id="path336" />
          </g>
        </g>
      </g>
    </g>
    <g
       inkscape:label=""
       transform="translate(269.94863,385.49609)"
       id="g342">
      <g
         id="g341"
         transform="translate(-2.91487,-2.01287)">
        <g
           style="fill:#000000;fill-opacity:1"
           id="g340">
          <g
             id="g339"
             transform="translate(1.993,16.341)">
            <path
               style="stroke:none"
               d="m 4.765625,-13.8125 c 0.03125,-0.09375 0.0625,-0.21875 0.0625,-0.3125 0,-0.203125 -0.203125,-0.203125 -0.25,-0.203125 -0.015625,0 -0.75,0.04687 -1.125,0.09375 -0.359375,0.01563 -0.671875,0.0625 -1.03125,0.07813 -0.5,0.04687 -0.640625,0.0625 -0.640625,0.4375 0,0.203125 0.203125,0.203125 0.40625,0.203125 1.0625,0 1.0625,0.1875 1.0625,0.40625 C 3.25,-12.96875 3.078125,-12.375 3,-12 l -0.5,1.984375 C 2.296875,-9.1875 1.109375,-4.5 1.03125,-4.125 0.921875,-3.609375 0.921875,-3.265625 0.921875,-3 c 0,2.109375 1.1875,3.203125 2.53125,3.203125 2.390625,0 4.875,-3.078125 4.875,-6.0625 0,-1.90625 -1.078125,-3.25 -2.625,-3.25 -1.078125,0 -2.046875,0.890625 -2.4375,1.296875 z M 3.46875,-0.203125 c -0.65625,0 -1.375,-0.5 -1.375,-2.109375 0,-0.6875 0.046875,-1.078125 0.421875,-2.515625 C 2.578125,-5.109375 2.90625,-6.421875 3,-6.6875 c 0.03125,-0.171875 1.25,-2.015625 2.65625,-2.015625 0.90625,0 1.328125,0.921875 1.328125,1.984375 0,1 -0.578125,3.328125 -1.09375,4.40625 C 5.375,-1.203125 4.421875,-0.203125 3.46875,-0.203125 Z m 0,0"
               id="path338" />
          </g>
        </g>
      </g>
    </g>
  </g>
  <g
     inkscape:groupmode="layer"
     id="layer1"
     inkscape:label="Layer 1"
     transform="translate(-87.117188,-13.151984)" />
</svg>
